<svg xmlns="http://www.w3.org/2000/svg" viewBox="0 0 512 512"><defs><style>.cls-1{fill:#ffa726;}.cls-2{fill:#212121;}.cls-16,.cls-17,.cls-3{fill:#fff;}.cls-4{fill:#424242;}.cls-5{fill:#323232;}.cls-6{fill:#ffb74d;}.cls-7{fill:#fb8c00;}.cls-8{fill:#f57c00;}.cls-9{fill:#6a4d28;}.cls-10{fill:#f7d9b7;}.cls-11{fill:#ecd3b8;}.cls-12,.cls-14,.cls-15{fill:none;}.cls-12{stroke:#6a4d28;stroke-linejoin:round;stroke-width:5.65px;}.cls-13{fill:#ae7d3b;}.cls-14,.cls-15{stroke:#424242;stroke-miterlimit:10;}.cls-14{stroke-linecap:round;stroke-width:3px;}.cls-15{stroke-width:11.3px;}.cls-16{opacity:0.25;}.cls-17{opacity:0.5;}</style></defs><title>cat</title><g id="body"><polygon class="cls-1" points="353.36 359.49 382.65 359.49 379.75 378.28 353.36 380.81 353.36 359.49"/><polygon points="353.36 241.62 353.36 359.49 382.65 359.49 353.36 241.62"/><polyline class="cls-2" points="382.65 359.49 369.6 252.44 353.36 241.62"/><polygon points="179.29 238.78 353.36 241.62 361.83 386.52 179.29 238.78"/><polyline class="cls-2" points="361.83 383.62 176.38 383.62 179.29 238.78"/><polygon class="cls-3" points="322.72 383.62 232.22 383.62 237.25 238.78 318.37 238.78 322.72 383.62"/><polygon points="361.83 383.62 176.38 383.62 176.38 421.61 348.14 421.61 361.83 383.62"/><rect x="176.38" y="386.52" width="28.17" height="125.02"/><rect x="333.66" y="386.52" width="28.17" height="125.02"/><polygon class="cls-4" points="139.76 332.85 229.4 406.3 189.57 406.3 139.76 332.85"/><polygon class="cls-2" points="189.57 406.3 99.92 332.85 139.76 332.85 189.57 406.3"/><polygon points="99.92 332.85 189.57 406.3 189.57 499.29 99.92 332.85"/><polygon class="cls-2" points="189.57 499.29 99.92 425.83 99.92 332.85 189.57 499.29"/><polygon class="cls-2" points="189.57 406.3 229.4 406.3 229.4 499.29 189.57 406.3"/><polygon class="cls-5" points="229.4 499.29 189.57 499.29 189.57 406.3 229.4 499.29"/><polygon points="179.29 238.78 177.04 350.85 147.09 350.85 179.29 238.78"/><polygon class="cls-2" points="147.09 350.85 161.6 245.25 179.29 238.78 147.09 350.85"/><polygon class="cls-1" points="177.04 350.85 147.09 350.85 147.09 363.83 161.59 373.76 176.61 372.14 177.04 350.85"/><polygon class="cls-1" points="132.51 166.1 134.41 81.81 135.26 44.31 138.06 -0.46 199.02 53.28 224.58 50.45 275.08 49.33 301.73 50.94 311.48 3.44 377.77 90.84 413.47 160.28 402.99 215.28 341.68 255.48 216.17 258.31 140.54 219.88 107.33 176.15 132.51 166.1"/><polygon class="cls-6" points="140.54 219.88 107.33 176.15 132.51 166.1 140.54 219.88"/><polygon class="cls-6" points="301.73 50.94 311.48 3.44 377.77 90.84 301.73 50.94"/><polygon class="cls-6" points="135.26 44.31 138.06 -0.46 199.02 53.28 135.26 44.31"/><polygon class="cls-1" points="135.26 44.31 134.41 81.81 199.02 53.28 135.26 44.31"/><polygon class="cls-7" points="292.25 240.78 216.17 258.31 140.54 219.88 292.25 240.78"/><polygon class="cls-8" points="402.99 215.28 341.68 255.48 216.17 258.31 402.99 215.28"/><polygon class="cls-6" points="413.47 160.28 292.25 240.78 132.51 166.1 413.47 160.28"/><polygon class="cls-9" points="278.17 168.28 309.58 167.98 296.49 184.63 278.17 168.28"/><polygon class="cls-10" points="146.31 20.9 184.92 59.5 146.37 76.52 145.15 43.49 146.31 20.9"/><polygon class="cls-11" points="323.19 23.73 350.26 60.94 315.55 50.45 323.19 23.73"/><polyline class="cls-12" points="250.62 200.57 284.67 200.57 296.49 184.63 306.3 200.57 333.89 200.57"/><polygon class="cls-9" points="133.09 140.28 209.73 170.01 132.51 166.1 133.09 140.28"/><polygon class="cls-9" points="107.33 176.15 196 185 116.49 188.21 107.33 176.15"/><polygon class="cls-9" points="140.54 219.88 205 197 130.66 206.88 140.54 219.88"/><polygon class="cls-9" points="406.51 146.75 376.13 161.09 413.47 160.28 406.51 146.75"/><polygon class="cls-9" points="411.01 173.22 382 174 408.86 184.5 411.01 173.22"/><polygon class="cls-9" points="405.94 200.57 381 190 402.99 215.28 405.94 200.57"/><polygon class="cls-9" points="199.02 53.28 247.1 102.13 224.58 50.45 199.02 53.28"/><polygon class="cls-9" points="233.23 50.26 278.17 105.05 265.25 49.55 233.23 50.26"/><polygon class="cls-9" points="275.08 49.33 308.58 100.65 301.73 50.94 275.08 49.33"/><polygon class="cls-13" points="134.41 81.81 195.65 114.08 134 99.7 134.41 81.81"/><polygon class="cls-13" points="377.77 90.84 348.5 97.52 363.88 72.52 377.77 90.84"/><polygon points="259.78 136.81 213.34 135.86 247.79 151.62 259.78 136.81"/><polygon points="356.08 138.41 309.63 137.47 344.09 153.23 356.08 138.41"/><rect x="332.1" y="138.42" width="23.98" height="26.8"/><rect x="235.81" y="136.81" width="23.98" height="26.8"/><rect class="cls-3" x="247.8" y="139.76" width="5.65" height="6.65"/><rect class="cls-3" x="344.09" y="140.51" width="5.65" height="6.65"/><polygon class="cls-2" points="167.55 361.61 178.5 361.61 178.5 377.99 167.55 361.61"/><polygon class="cls-5" points="178.5 377.99 167.55 377.99 167.55 361.61 178.5 377.99"/><ellipse class="cls-13" cx="240.45" cy="121.23" rx="16.25" ry="8.87"/><ellipse class="cls-13" cx="326.92" cy="122.92" rx="15.36" ry="8.39"/><polygon class="cls-6" points="270.41 163.24 286.38 136.24 314.99 162.32 270.41 163.24"/><line class="cls-14" x1="235.5" y1="176.5" x2="206.5" y2="161.5"/><line class="cls-14" x1="233.53" y1="185.66" x2="197.53" y2="188.66"/><line class="cls-14" x1="236.5" y1="195.5" x2="211.1" y2="204.65"/><line class="cls-14" x1="349.5" y1="175.5" x2="382.5" y2="165.5"/><line class="cls-14" x1="352.52" y1="183.4" x2="382.52" y2="182.4"/><line class="cls-14" x1="353.63" y1="193.63" x2="381.63" y2="196.63"/></g><g id="acc"><line class="cls-15" x1="281.6" y1="152.97" x2="309.17" y2="152.97"/><polygon class="cls-4" points="203.41 145.9 127.44 144.44 127.44 131.32 203.41 131.77 203.41 145.9"/><polygon class="cls-16" points="203.41 128.78 281.6 128.78 281.6 177.15 203.41 128.78"/><polygon class="cls-17" points="281.6 177.15 203.41 177.15 203.41 128.78 281.6 177.15"/><polygon class="cls-16" points="303.37 128.68 376.74 128.68 376.74 177.04 303.37 128.68"/><rect class="cls-15" x="203.41" y="128.79" width="78.18" height="48.36"/><polygon class="cls-17" points="376.74 177.04 303.37 176.95 303.37 128.59 376.74 177.04"/><polygon class="cls-4" points="408.77 144.89 379.64 147.26 379.64 133.13 408.31 131.49 408.77 144.89"/><rect class="cls-15" x="309.17" y="128.68" width="70.48" height="48.36"/></g></svg>