<svg xmlns="http://www.w3.org/2000/svg" viewBox="0 0 64 64"><defs><style>.a{fill:#feea3a;}.b{fill:#ef6c00;}.c{fill:#ffee58;}.d{fill:#ff8f00;}.e{fill:#fff;}.f{fill:#f8981d;}.g{fill:#f57c00;}.h{fill:#fdd835;}.i{fill:#ffb300;}</style></defs><title>duck</title><path class="a" d="M7,39.4c-1.64-13.5,3.05-29,14.85-32.08,10-2.58,25.18,4.52,24.76,25.66Z"/><path class="b" d="M40.48,57.78c0,2.18-2,6.22-3.42,6.22s-3.42-4-3.42-6.22.93-3.62,3.42-3.62S40.48,55.61,40.48,57.78Z"/><path class="b" d="M31.81,57.78c0,2.18-2,6.22-3.42,6.22S25,60,25,57.78s.94-3.62,3.42-3.62S31.81,55.61,31.81,57.78Z"/><path class="c" d="M52.16,48.35,46.64,33c3.06-.19,7-.35,9.36-.35Z"/><path class="d" d="M41.66,57C28.1,60.42,9.41,58.91,7,39.4Z"/><circle class="e" cx="23.76" cy="22.72" r="10.39"/><circle cx="23.76" cy="22.72" r="6.3"/><path class="f" d="M.35,25.4c-2,3.22,5.3,7.15,6.26,7.1-2.73.73-5.32,2.14-5,4.26.46,2.85,12.33.1,11.93-4.83S2.36,22.17.35,25.4Z"/><path class="g" d="M6.61,32.5c-2.73.73-5.32,2.14-5,4.26.46,2.85,12.33.1,11.93-4.83Z"/><polygon class="h" points="46.64 32.98 7.03 39.4 52.16 48.35 46.64 32.98"/><polygon class="i" points="41.66 57.01 7.03 39.4 52.16 48.35 41.66 57.01"/></svg>