<svg xmlns="http://www.w3.org/2000/svg" viewBox="0 0 64 64">
  <defs>
    <style>.a{opacity:0.3;}.b{opacity:0.1;}.c,.g{opacity:0.2;}.d{fill:#fff;}.e{fill:#f8981d;}.f{fill:#f57c00;}.h{fill:#ef6c00;}</style>
  </defs>
  <title>duck-fg</title>
  <path class="a" d="M41.66,57C28.1,60.42,9.41,58.91,7,39.4Z"/>
  <polygon class="b" points="46.64 32.98 7.03 39.4 52.16 48.35 46.64 32.98"/>
  <polygon class="c" points="41.66 57.01 7.03 39.4 52.16 48.35 41.66 57.01"/>
  <circle class="d" cx="23.76" cy="22.72" r="10.39"/>
  <circle cx="23.76" cy="22.72" r="6.3"/>
  <path class="e" d="M.35,25.4c-2,3.22,5.3,7.15,6.26,7.1-2.73.73-5.32,2.14-5,4.26.46,2.85,12.33.1,11.93-4.83S2.36,22.17.35,25.4Z"/>
  <path class="f" d="M6.61,32.5c-2.73.73-5.32,2.14-5,4.26.46,2.85,12.33.1,11.93-4.83Z"/>
  <g class="g">
    <path d="M46.64,33l5.52,15.37L56,32.63C53.67,32.63,49.7,32.79,46.64,33Z"/>
  </g>
  <path class="h" d="M25,58c.13,2.22,2.08,6,3.4,6s3.06-3.34,3.37-5.58A35.46,35.46,0,0,1,25,58Z"/>
  <path class="h" d="M33.68,58.32C34,60.56,35.79,64,37.06,64s3.42-4,3.42-6.22c0-.17,0-.32,0-.48A49.26,49.26,0,0,1,33.68,58.32Z"/>
</svg>