<svg xmlns="http://www.w3.org/2000/svg" xmlns:xlink="http://www.w3.org/1999/xlink" viewBox="0 0 320 320"><defs><style>.a{fill:#827717;}.b{fill:#c0ca33;}.c{fill:#afb42b;}.d{fill:#cddc39;}.e{fill:#3e2723;}.f{fill:#5d4037;}.g{fill:#795548;}</style><symbol id="a" viewBox="0 0 6.29 11.01"><ellipse class="a" cx="3.34" cy="10.01" rx="2" ry="1"/><path class="b" d="M3.62,10.1C-1.61,7.43.36,0,.36,0S6.66,5.24,3.62,10.1Z"/><path class="c" d="M3.34,10C1,6.05,5.88,3.07,5.88,3.07S7.8,8.9,3.34,10Z"/></symbol></defs><title>grass</title><polygon class="d" points="21.44 80 160 160 298.56 80 160 0 21.44 80"/><use width="6.29" height="11.01" transform="translate(112.04 75.73) scale(0.57)" xlink:href="#a"/><use width="6.29" height="11.01" transform="translate(32.28 77.06) scale(0.57)" xlink:href="#a"/><use width="6.29" height="11.01" transform="translate(223.77 70.44) scale(0.57)" xlink:href="#a"/><use width="6.29" height="11.01" transform="translate(237.93 70.74) scale(0.57)" xlink:href="#a"/><use width="6.29" height="11.01" transform="matrix(-0.71, 0, 0, 0.71, 115.81, 100.74)" xlink:href="#a"/><use width="6.29" height="11.01" transform="matrix(-0.71, 0, 0, 0.71, 110.51, 90.94)" xlink:href="#a"/><use width="6.29" height="11.01" transform="matrix(-0.71, 0, 0, 0.71, 92.65, 84.94)" xlink:href="#a"/><use width="6.29" height="11.01" transform="translate(185.47 72.22) scale(0.78)" xlink:href="#a"/><use width="6.29" height="11.01" transform="translate(193.07 47.83) scale(0.78)" xlink:href="#a"/><use width="6.29" height="11.01" transform="translate(195.05 81.01) scale(0.78)" xlink:href="#a"/><use width="6.29" height="11.01" transform="matrix(-0.7, 0, 0, 0.7, 171.99, 96.3)" xlink:href="#a"/><use width="6.29" height="11.01" transform="matrix(-0.7, 0, 0, 0.7, 145.06, 95.73)" xlink:href="#a"/><use width="6.29" height="11.01" transform="matrix(-0.7, 0, 0, 0.7, 176.64, 106.68)" xlink:href="#a"/><use width="6.29" height="11.01" transform="matrix(-0.45, 0, 0, 0.45, 162.18, 48.6)" xlink:href="#a"/><use width="6.29" height="11.01" transform="matrix(-0.45, 0, 0, 0.45, 166.15, 117.87)" xlink:href="#a"/><use width="6.29" height="11.01" transform="matrix(-0.45, 0, 0, 0.45, 179.84, 117.87)" xlink:href="#a"/><use width="6.29" height="11.01" transform="matrix(-0.45, 0, 0, 0.45, 199.86, 118.19)" xlink:href="#a"/><use width="6.29" height="11.01" transform="matrix(-0.45, 0, 0, 0.45, 198.78, 101.74)" xlink:href="#a"/><use width="6.29" height="11.01" transform="matrix(-0.45, 0, 0, 0.45, 131.99, 48.79)" xlink:href="#a"/><use width="6.29" height="11.01" transform="matrix(-0.45, 0, 0, 0.45, 131.8, 34.97)" xlink:href="#a"/><use width="6.29" height="11.01" transform="matrix(-0.45, 0, 0, 0.45, 148.78, 70.49)" xlink:href="#a"/><use width="6.29" height="11.01" transform="matrix(-0.45, 0, 0, 0.45, 148.35, 54.38)" xlink:href="#a"/><use width="6.29" height="11.01" transform="matrix(-0.45, 0, 0, 0.45, 122.62, 93.6)" xlink:href="#a"/><use width="6.29" height="11.01" transform="matrix(-0.45, 0, 0, 0.45, 118.42, 114.94)" xlink:href="#a"/><use width="6.29" height="11.01" transform="matrix(-0.45, 0, 0, 0.45, 217.86, 53.7)" xlink:href="#a"/><use width="6.29" height="11.01" transform="matrix(-0.45, 0, 0, 0.45, 249.19, 79.08)" xlink:href="#a"/><use width="6.29" height="11.01" transform="matrix(-0.45, 0, 0, 0.45, 160.94, 29.16)" xlink:href="#a"/><use width="6.29" height="11.01" transform="matrix(-0.45, 0, 0, 0.45, 159.04, 3.75)" xlink:href="#a"/><use width="6.29" height="11.01" transform="matrix(-0.45, 0, 0, 0.45, 188.04, 38.53)" xlink:href="#a"/><use width="6.29" height="11.01" transform="matrix(-0.52, 0, 0, 0.52, 185.47, 53.57)" xlink:href="#a"/><use width="6.29" height="11.01" transform="matrix(-0.52, 0, 0, 0.52, 191.08, 61.8)" xlink:href="#a"/><use width="6.29" height="11.01" transform="matrix(-0.52, 0, 0, 0.52, 252.05, 95.47)" xlink:href="#a"/><use width="6.29" height="11.01" transform="matrix(-0.52, 0, 0, 0.52, 228.23, 59.18)" xlink:href="#a"/><use width="6.29" height="11.01" transform="matrix(-0.52, 0, 0, 0.52, 177.08, 62.45)" xlink:href="#a"/><use width="6.29" height="11.01" transform="matrix(-0.63, 0, 0, 0.63, 83.29, 71.76)" xlink:href="#a"/><use width="6.29" height="11.01" transform="translate(137.81 68.31) scale(0.5)" xlink:href="#a"/><use width="6.29" height="11.01" transform="matrix(-0.45, 0, 0, 0.45, 77.25, 94)" xlink:href="#a"/><use width="6.29" height="11.01" transform="translate(66.27 91.82) scale(0.5)" xlink:href="#a"/><use width="6.29" height="11.01" transform="translate(123.42 62.18) scale(0.5)" xlink:href="#a"/><use width="6.29" height="11.01" transform="translate(99.42 111.72) scale(0.5)" xlink:href="#a"/><use width="6.29" height="11.01" transform="translate(86.25 104.04) scale(0.5)" xlink:href="#a"/><use width="6.29" height="11.01" transform="translate(98.37 73.71) scale(0.5)" xlink:href="#a"/><use width="6.29" height="11.01" transform="translate(112.87 48.52) scale(0.5)" xlink:href="#a"/><use width="6.29" height="11.01" transform="translate(136.3 25.33) scale(0.5)" xlink:href="#a"/><use width="6.29" height="11.01" transform="translate(126.73 85.27) scale(0.57)" xlink:href="#a"/><use width="6.29" height="11.01" transform="matrix(-0.71, 0, 0, 0.71, 153.96, 82.6)" xlink:href="#a"/><use width="6.29" height="11.01" transform="matrix(-0.45, 0, 0, 0.45, 191.61, 108.25)" xlink:href="#a"/><use width="6.29" height="11.01" transform="matrix(-0.63, 0, 0, 0.63, 103.74, 59.8)" xlink:href="#a"/><use width="6.29" height="11.01" transform="matrix(-0.63, 0, 0, 0.63, 103.57, 46.16)" xlink:href="#a"/><use width="6.29" height="11.01" transform="translate(172.02 40.17) scale(0.65)" xlink:href="#a"/><use width="6.29" height="11.01" transform="matrix(-0.45, 0, 0, 0.45, 169.2, 12.39)" xlink:href="#a"/><use width="6.29" height="11.01" transform="matrix(-0.45, 0, 0, 0.45, 196.3, 21.75)" xlink:href="#a"/><use width="6.29" height="11.01" transform="translate(180.28 23.39) scale(0.65)" xlink:href="#a"/><use width="6.29" height="11.01" transform="translate(160.78 59.22) scale(0.57)" xlink:href="#a"/><use width="6.29" height="11.01" transform="matrix(-0.71, 0, 0, 0.71, 204.84, 64.74)" xlink:href="#a"/><use width="6.29" height="11.01" transform="matrix(-0.45, 0, 0, 0.45, 226.59, 83.05)" xlink:href="#a"/><use width="6.29" height="11.01" transform="matrix(-0.45, 0, 0, 0.45, 225.73, 94.77)" xlink:href="#a"/><use width="6.29" height="11.01" transform="matrix(-0.45, 0, 0, 0.45, 257.41, 72.55)" xlink:href="#a"/><use width="6.29" height="11.01" transform="matrix(-0.45, 0, 0, 0.45, 217.92, 79.28)" xlink:href="#a"/><use width="6.29" height="11.01" transform="matrix(-0.63, 0, 0, 0.63, 143.74, 36.94)" xlink:href="#a"/><use width="6.29" height="11.01" transform="matrix(-0.63, 0, 0, 0.63, 153.72, 37.62)" xlink:href="#a"/><use width="6.29" height="11.01" transform="matrix(-0.45, 0, 0, 0.45, 186.8, 94.46)" xlink:href="#a"/><use width="6.29" height="11.01" transform="matrix(-0.45, 0, 0, 0.45, 156.6, 94.65)" xlink:href="#a"/><use width="6.29" height="11.01" transform="matrix(-0.45, 0, 0, 0.45, 131.2, 114.78)" xlink:href="#a"/><use width="6.29" height="11.01" transform="matrix(-0.45, 0, 0, 0.45, 173.89, 73.91)" xlink:href="#a"/><use width="6.29" height="11.01" transform="matrix(-0.52, 0, 0, 0.52, 210.08, 99.42)" xlink:href="#a"/><use width="6.29" height="11.01" transform="matrix(-0.63, 0, 0, 0.63, 124.09, 126.44)" xlink:href="#a"/><use width="6.29" height="11.01" transform="translate(149.7 110.8) scale(0.73)" xlink:href="#a"/><use width="6.29" height="11.01" transform="translate(185.39 105.07) scale(0.57)" xlink:href="#a"/><use width="6.29" height="11.01" transform="matrix(-0.7, 0, 0, 0.7, 213.58, 109.05)" xlink:href="#a"/><use width="6.29" height="11.01" transform="matrix(-0.45, 0, 0, 0.45, 228.54, 110.63)" xlink:href="#a"/><use width="6.29" height="11.01" transform="translate(222.33 107.44) scale(0.57)" xlink:href="#a"/><use width="6.29" height="11.01" transform="matrix(-0.7, 0, 0, 0.7, 168.17, 127.42)" xlink:href="#a"/><use width="6.29" height="11.01" transform="matrix(-0.7, 0, 0, 0.7, 141.24, 126.84)" xlink:href="#a"/><use width="6.29" height="11.01" transform="matrix(-0.7, 0, 0, 0.7, 172.82, 137.79)" xlink:href="#a"/><use width="6.29" height="11.01" transform="matrix(-0.45, 0, 0, 0.45, 162.33, 148.98)" xlink:href="#a"/><use width="6.29" height="11.01" transform="matrix(-0.45, 0, 0, 0.45, 191.06, 123.16)" xlink:href="#a"/><use width="6.29" height="11.01" transform="matrix(-0.45, 0, 0, 0.45, 211.39, 122.85)" xlink:href="#a"/><use width="6.29" height="11.01" transform="translate(145.87 141.91) scale(0.73)" xlink:href="#a"/><use width="6.29" height="11.01" transform="translate(178.48 129.88) scale(0.57)" xlink:href="#a"/><use width="6.29" height="11.01" transform="matrix(-0.7, 0, 0, 0.7, 58.9, 59.27)" xlink:href="#a"/><use width="6.29" height="11.01" transform="matrix(-0.7, 0, 0, 0.7, 63.56, 69.65)" xlink:href="#a"/><use width="6.29" height="11.01" transform="matrix(-0.45, 0, 0, 0.45, 53.06, 80.84)" xlink:href="#a"/><use width="6.29" height="11.01" transform="matrix(-0.45, 0, 0, 0.45, 78.52, 71.22)" xlink:href="#a"/><use width="6.29" height="11.01" transform="matrix(-0.45, 0, 0, 0.45, 73.71, 57.43)" xlink:href="#a"/><use width="6.29" height="11.01" transform="translate(72.31 68.04) scale(0.57)" xlink:href="#a"/><use width="6.29" height="11.01" transform="translate(113.95 31.19) scale(0.57)" xlink:href="#a"/><use width="6.29" height="11.01" transform="translate(80.57 53.16) scale(0.57)" xlink:href="#a"/><use width="6.29" height="11.01" transform="matrix(-0.63, 0, 0, 0.63, 168.35, 82.8)" xlink:href="#a"/><use width="6.29" height="11.01" transform="matrix(-0.7, 0, 0, 0.7, 215.27, 91.39)" xlink:href="#a"/><use width="6.29" height="11.01" transform="matrix(-0.7, 0, 0, 0.7, 237.83, 99.64)" xlink:href="#a"/><use width="6.29" height="11.01" transform="matrix(-0.7, 0, 0, 0.7, 237.05, 86.72)" xlink:href="#a"/><use width="6.29" height="11.01" transform="translate(269.7 69.39) scale(0.57)" xlink:href="#a"/><use width="6.29" height="11.01" transform="translate(247.14 58.9) scale(0.57)" xlink:href="#a"/><use width="6.29" height="11.01" transform="matrix(-0.45, 0, 0, 0.45, 280.96, 77.73)" xlink:href="#a"/><use width="6.29" height="11.01" transform="matrix(-0.7, 0, 0, 0.7, 268.82, 85.37)" xlink:href="#a"/><use width="6.29" height="11.01" transform="translate(200.17 31.76) scale(0.57)" xlink:href="#a"/><use width="6.29" height="11.01" transform="translate(214.33 32.06) scale(0.57)" xlink:href="#a"/><use width="6.29" height="11.01" transform="matrix(-0.45, 0, 0, 0.45, 225.59, 40.4)" xlink:href="#a"/><use width="6.29" height="11.01" transform="matrix(-0.45, 0, 0, 0.45, 202.99, 44.37)" xlink:href="#a"/><use width="6.29" height="11.01" transform="matrix(-0.45, 0, 0, 0.45, 159.95, 18.32)" xlink:href="#a"/><use width="6.29" height="11.01" transform="matrix(-0.45, 0, 0, 0.45, 147.36, 15.38)" xlink:href="#a"/><use width="6.29" height="11.01" transform="matrix(-0.7, 0, 0, 0.7, 212.58, 43.45)" xlink:href="#a"/><use width="6.29" height="11.01" transform="matrix(-0.45, 0, 0, 0.45, 239.46, 52.13)" xlink:href="#a"/><use width="6.29" height="11.01" transform="matrix(-0.7, 0, 0, 0.7, 235.05, 46.47)" xlink:href="#a"/><polygon class="e" points="21.44 80 160 160 160 320 21.44 240 21.44 80"/><polygon class="f" points="21.44 121.34 160 201.34 160 248.55 21.44 168.55 21.44 121.34"/><polygon class="a" points="21.44 80 160 160 160 171.34 21.44 91.34 21.44 80"/><polygon class="g" points="21.44 121.67 160 201.67 160 171.34 21.44 91.34 21.44 121.67"/><polygon class="e" points="298.56 80 160 160 160 320 298.56 240 298.56 80"/><polygon class="f" points="298.56 121.67 160 201.67 160 248.88 298.56 168.88 298.56 121.67"/><polygon class="a" points="298.56 80 160 160 160 171.34 298.56 91.34 298.56 80"/><polygon class="g" points="298.56 121.67 160 201.67 160 171.34 298.56 91.34 298.56 121.67"/></svg>