<svg xmlns="http://www.w3.org/2000/svg" xmlns:xlink="http://www.w3.org/1999/xlink" viewBox="0 0 320 320"><defs><style>.a{fill:#795548;}.b{fill:#3e2723;}.c{fill:#5d4037;}.d{fill:#8d6e63;}</style><symbol id="a" viewBox="0 0 277.13 160"><polygon class="a" points="0 80 138.56 160 277.13 80 138.56 0 0 80"/></symbol><symbol id="b" viewBox="0 0 138.56 240"><polygon class="b" points="0 0 138.56 80 138.56 240 0 160 0 0"/><polygon class="c" points="0 41.67 138.56 121.67 138.56 168.88 0 88.89 0 41.67"/><polygon class="d" points="0 0 138.56 80 138.56 91.34 0 11.34 0 0"/><polygon class="a" points="0 41.67 138.56 121.67 138.56 91.34 0 11.34 0 41.67"/></symbol><symbol id="c" viewBox="0 0 138.56 240"><polygon class="b" points="138.56 0 0 80 0 240 138.56 160 138.56 0"/><polygon class="c" points="138.56 41.67 0 121.67 0 168.88 138.56 88.89 138.56 41.67"/><polygon class="d" points="138.56 0 0 80 0 91.34 138.56 11.34 138.56 0"/><polygon class="a" points="138.56 41.67 0 121.67 0 91.34 138.56 11.34 138.56 41.67"/></symbol></defs><title>soil</title><use width="277.13" height="160" transform="translate(21.44)" xlink:href="#a"/><use width="138.56" height="240" transform="translate(21.44 80)" xlink:href="#b"/><use width="138.56" height="240" transform="translate(160 80)" xlink:href="#c"/></svg>